<?xml version="1.0" encoding="utf-8"?>
<!-- Generator: Adobe Illustrator 24.3.0, SVG Export Plug-In . SVG Version: 6.00 Build 0)  -->
<svg version="1.1" id="Layer_1" xmlns="http://www.w3.org/2000/svg" xmlns:xlink="http://www.w3.org/1999/xlink" x="0px" y="0px"
	 viewBox="0 0 1200 1200" style="enable-background:new 0 0 1200 1200;" xml:space="preserve">
<style type="text/css">
	.st0{fill:#F53259;}
	.st1{enable-background:new    ;}
	.st2{fill:#F86E52;}
</style>
<g>
	<path class="st0" d="M408.4,391.6c0,34.1-10.9,61.4-32.7,81.9c-21.8,20.5-50.7,30.7-86.7,30.7l-2.2,54.9h-99.2l-5.2-134.2
		c-1.6-34.6-4-82.1-7.4-142.5c18.7-3.7,46.2-5.6,82.3-5.6c44.1,0,79.4,8.8,105.9,26.5C393.3,323.4,408.4,352.8,408.4,391.6z
		 M333.6,421.9c0-18.7-11.1-28.1-33.3-28.1c-2.6,0-5.3,0.2-8.1,0.5l-1.8,63C319.2,456.4,333.6,444.6,333.6,421.9z"/>
	<path class="st0" d="M661.8,414.9c0,42.4-10.9,78.2-32.8,107.5c-22.9,30.6-52.3,45.9-88.1,45.9c-36.9,0-66.7-15.4-89.5-46.3
		c-21.5-29.1-32.2-64.8-32.2-107.2c0-45.3,11.7-80.8,35.1-106.6c22.1-24.3,51-36.4,86.6-36.4c35.1,0,63.6,12.2,85.7,36.6
		C650.1,334.4,661.8,369.8,661.8,414.9z M575.1,446.6c0-33.4-11.3-50.1-33.9-50.1c-22,0-33,16.8-33,50.4c0,13.4,2.9,26,8.6,37.6
		c6.5,13.1,14.5,19.6,24,19.6c9.2,0,17.4-6.7,24.5-20C571.9,472.1,575.1,459.5,575.1,446.6z"/>
	<path class="st0" d="M862.4,504.5c-1.2,4.8-3.4,13.9-6.7,27.2c-1.7,7.8-3.1,16.9-4.3,27.4h-163c-0.6-28.2-2.1-74.7-4.5-139.4
		c-1.6-33.1-4.4-78.9-8.5-137.2h125l-10.3,229.4c11.6,0,29.1-1.3,52.4-3.8C847.4,507.7,854,506.5,862.4,504.5z"/>
	<g class="st1">
		<path class="st0" d="M1028.9,512.7c-1,4.1-2.9,11.8-5.7,23.1c-1.4,6.6-2.7,14.4-3.7,23.3H880.8c-0.5-24-1.8-63.6-3.8-118.6
			c-1.3-28.2-3.7-67.1-7.2-116.8h106.4L967.4,519c9.9,0,24.8-1.1,44.6-3.2C1016.1,515.3,1021.7,514.3,1028.9,512.7z"/>
	</g>
	<g class="st1">
		<path class="st0" d="M454.7,703.2c0,21.6-5.2,40.3-15.5,56c-8.8,13.2-19.7,22.6-32.8,28.1c8.4,3.6,15.2,9.5,20.5,17.8
			c5.3,8.3,7.9,17.1,7.9,26.5c0,23.3-12.4,40.3-37.3,51.1c-19.2,8.4-44.4,12.6-75.6,12.6c-26.9,0-55.8-2.2-86.6-6.7
			c-0.8-28-2.6-73.6-5.2-136.9c-1.8-34-4.5-80.6-8.1-139.8c22.8-4.4,51.7-6.7,86.6-6.7C406.1,605.4,454.7,638,454.7,703.2z
			 M375.5,822.6c0-13.9-10-20.9-29.9-20.9c-2,0-4.1,0.1-6.3,0.4l-1.1,44.1C363.1,847.3,375.5,839.4,375.5,822.6z M381.4,737.1
			c0-9.2-3.7-16.3-11.2-21.3c-6.7-4.4-15.5-6.5-26.5-6.3l-2.7,54.2C368,764.7,381.4,755.8,381.4,737.1z"/>
	</g>
	<g class="st1">
		<path class="st0" d="M1040.7,612.1c-4.8,9.1-17,31.2-36.6,66.1c-11.2,19.3-27.9,46.9-50.1,82.8l65.6,127.7h-83.7l-34.2-56.4
			c-14.9,22.8-26.7,41.6-35.5,56.4h-73.7c6.4-9.6,20.4-32.2,42-67.9c8.4-14.4,17.9-30.9,28.5-49.3c-7.9-13-20.7-34.8-38.4-65.4
			c-19.2-34.5-36.2-65.8-51-94h123.9c1.6,5,4.9,14.9,10.1,29.5c3.1,8.4,7,17.5,11.7,27.2c3-5.2,7.8-14,14.4-26.5
			c3.8-7.8,8.3-17.9,13.3-30.3H1040.7z"/>
	</g>
	<path id="box-svgrepo-com" class="st2" d="M478.4,768.9l118.7,59.9l21.2-59.9l-118.7-56.7L478.4,768.9L478.4,768.9z M620.9,768.9
		l20.1,59.3l122.9-59.9l-23.8-56.1L620.9,768.9z M458.9,664.4l40.8,47.7l118.6-60.4l-38.7-49.3L458.9,664.4L458.9,664.4z
		 M778.8,665.4l-118.1-63l-40.3,49.3L740.1,712L778.8,665.4z M492.6,783.9l-0.4,57.5l125.1,58V791.3l-17.9,46.6L492.6,783.9z
		 M621.7,791.3v108.1l124.8-58v-57.1L638.3,838L621.7,791.3L621.7,791.3z"/>
</g>
</svg>
