<svg version="1.1" id="Layer_1" xmlns="http://www.w3.org/2000/svg" xmlns:xlink="http://www.w3.org/1999/xlink" x="0px"
     y="0px"
     width="100%" viewBox="50 -100 1200 700" enable-background="new 0 0 500 500" xml:space="preserve">
<!--<path fill="#FFFFFF" opacity="1.000000" stroke="none" -->
  <!--	d="-->
  <!--M245.000000,501.000000 -->
  <!--	C164.666687,501.000000 84.833328,500.971893 5.000206,501.096069 -->
  <!--	C1.575961,501.101410 0.903036,500.423828 0.905301,497.000000 -->
  <!--	C1.013779,333.000092 1.013772,169.000122 0.905334,5.000239 -->
  <!--	C0.903070,1.576922 1.575817,0.903022 4.999884,0.905287 -->
  <!--	C168.999771,1.013774 332.999725,1.013761 496.999634,0.905353 -->
  <!--	C500.422668,0.903090 501.096985,1.575443 501.094727,4.999765 -->
  <!--	C500.986206,168.999649 500.986237,332.999603 501.094604,496.999512 -->
  <!--	C501.096893,500.422272 500.425446,501.101013 497.000275,501.096008 -->
  <!--	C413.166992,500.973206 329.333466,501.000000 245.000000,501.000000 -->
  <!--z"/>-->
<path fill="#1ba305" opacity="1.000000" stroke="none"
      d="M168.683136,170.030655
	C174.188278,156.600174 179.583740,143.548920 185.005157,130.508438
	C185.430038,129.486481 185.620865,128.099747 187.121933,128.065567
	C189.472534,128.012024 189.421478,130.192291 190.001694,131.564453
	C203.726700,164.022385 217.387268,196.507553 231.071732,228.982651
	C233.628387,235.049988 236.236984,241.095444 239.229141,248.105789
	C247.144287,228.964813 254.607529,210.886429 262.094971,192.818069
	C270.494965,172.547607 278.890167,152.275009 287.383057,132.043488
	C288.016266,130.535034 287.937164,128.171097 290.466187,128.021439
	C293.360870,127.850136 293.308228,130.425446 294.013123,132.088409
	C328.590332,213.661636 363.125488,295.252686 397.663574,376.842499
	C399.774506,381.829254 399.767761,381.842560 394.270355,381.850677
	C387.105194,381.861237 379.930328,381.633514 372.779022,381.948181
	C369.325256,382.100128 367.899231,380.801483 366.630615,377.766541
	C344.513519,324.856689 322.273285,271.998322 300.072144,219.123566
	C292.994476,202.267227 285.965240,185.390533 278.867126,168.542831
	C278.375305,167.375458 278.224243,165.930267 276.426605,164.928665
	C271.905182,175.794022 267.429993,186.581421 262.928558,197.357880
	C255.945389,214.075836 249.004562,230.812027 241.892334,247.474991
	C240.687912,250.296768 240.696915,252.617554 241.888733,255.460922
	C258.531677,295.166534 275.049255,334.924622 291.609375,374.664917
	C294.609009,381.863373 294.633820,381.853088 287.075256,381.853241
	C281.076508,381.853363 275.062378,381.593323 269.084564,381.946930
	C265.257843,382.173279 263.625214,380.681580 262.238495,377.273956
	C250.897186,349.405334 239.361954,321.615631 227.877304,293.805389
	C227.180756,292.118713 226.412872,290.461487 225.650787,288.728241
	C223.515930,289.230499 223.557693,291.185120 222.961655,292.549622
	C215.575409,309.459106 208.541824,326.528870 200.847595,343.295868
	C192.766876,360.905090 180.574692,374.661072 161.325607,380.361847
	C135.818924,387.915924 108.483513,372.147919 103.509842,347.059265
	C101.459152,336.715027 102.866920,326.505859 107.028809,316.369904
	C107.585335,315.646576 108.060036,315.507294 108.932785,315.827332
	C109.944839,321.143829 107.452766,325.720520 106.805458,330.630859
	C103.266037,357.479736 121.210220,377.418396 146.510620,377.736603
	C169.704590,378.028290 183.979218,364.695526 194.892380,346.269348
	C199.058273,339.235504 201.866806,331.526947 204.953171,323.981995
	C209.680145,312.426300 214.259644,300.808990 219.118469,289.308319
	C220.784027,285.366058 220.796417,281.697174 219.135742,277.747437
	C208.490616,252.429001 197.958328,227.063171 187.401947,201.707504
	C183.435547,192.180542 179.505661,182.638123 175.462814,173.143082
	C174.822617,171.639496 174.400711,170.014694 173.376343,168.761169
	C171.904327,169.082642 171.587982,170.477646 170.182220,171.135864
	C169.266968,171.181229 168.855865,170.894592 168.683136,170.030655
z"/>
  <path fill="#1ba305" opacity="1.000000" stroke="none"
        d="M168.515320,169.882401
	C168.990707,169.982040 169.195175,170.315384 169.642639,170.814056
	C171.617615,173.428528 169.773544,175.493088 168.941772,177.473984
	C158.698425,201.868896 148.337524,226.214432 138.086990,250.606537
	C129.705887,270.550140 121.219429,290.449188 112.818848,310.384552
	C111.988884,312.354095 111.529037,314.561676 109.175873,315.938477
	C108.440598,316.027679 108.081001,316.031006 107.451691,316.033020
	C115.378166,296.283600 123.522141,276.513672 131.782867,256.792633
	C143.892868,227.882080 156.086456,199.006546 168.515320,169.882401
z"/>
  <text x="70%" y="45%" text-anchor="middle" font-family="Verdana"
        font-size="1000%" font-style="italic" font-variant="small-caps" font-weight="bold"
        fill="#1ba305">
        Business
    </text>
</svg>
